<svg xmlns="http://www.w3.org/2000/svg" viewBox="0 0 24 24">
  <path d="M2.996 20.813h16.257c2 0 2.995-1.006 2.995-2.956v-1.498H18.53c-2.43 0-3.937-1.527-3.937-3.728s1.507-3.728 3.937-3.728h3.718v-1.477c0-1.96-.995-2.956-2.995-2.956H2.996C1.006 4.47 0 5.456 0 7.425v10.432c0 1.96 1.006 2.956 2.996 2.956Zm15.101-7.152a1.018 1.018 0 0 1-1.027-1.03 1.02 1.02 0 0 1 1.027-1.026 1.026 1.026 0 0 1 1.03 1.027 1.024 1.024 0 0 1-1.03 1.029Zm.171 1.397h3.575c.925 0 1.488-.654 1.488-1.469v-1.91c0-.824-.563-1.477-1.488-1.477h-3.575c-1.587 0-2.631.834-2.631 2.429 0 1.595 1.044 2.427 2.631 2.427Zm-11.831-12.03h12.123c0-.08 0-.15-.01-.23-.1-2.15-1.646-2.794-3.756-2.18Z" fill="#8b1c23"/>
</svg>
